<mxfile host="app.diagrams.net" modified="2023-11-23T02:26:44.656Z" agent="Mozilla/5.0 (Windows NT 10.0; Win64; x64) AppleWebKit/537.36 (KHTML, like Gecko) Chrome/119.0.0.0 Safari/537.36" etag="3hZcDDZXxel_7nAFI2VQ" version="22.1.3" type="github">
  <diagram name="페이지-1" id="9XwMWCpFWCZFnBNl0Jvq">
    <mxGraphModel dx="1500" dy="746" grid="1" gridSize="10" guides="1" tooltips="1" connect="1" arrows="1" fold="1" page="1" pageScale="1" pageWidth="827" pageHeight="1169" math="0" shadow="0">
      <root>
        <mxCell id="0" />
        <mxCell id="1" parent="0" />
        <mxCell id="7PF5uapEtsxosT9Od1Yl-1" value="" style="rounded=0;whiteSpace=wrap;html=1;" vertex="1" parent="1">
          <mxGeometry x="210" y="240" width="120" height="60" as="geometry" />
        </mxCell>
        <mxCell id="7PF5uapEtsxosT9Od1Yl-2" value="" style="rhombus;whiteSpace=wrap;html=1;" vertex="1" parent="1">
          <mxGeometry x="510" y="230" width="80" height="80" as="geometry" />
        </mxCell>
        <mxCell id="7PF5uapEtsxosT9Od1Yl-3" value="" style="rounded=0;whiteSpace=wrap;html=1;" vertex="1" parent="1">
          <mxGeometry x="760" y="240" width="120" height="60" as="geometry" />
        </mxCell>
        <mxCell id="7PF5uapEtsxosT9Od1Yl-4" value="" style="ellipse;whiteSpace=wrap;html=1;" vertex="1" parent="1">
          <mxGeometry x="300" y="360" width="120" height="80" as="geometry" />
        </mxCell>
        <mxCell id="7PF5uapEtsxosT9Od1Yl-5" value="" style="ellipse;whiteSpace=wrap;html=1;" vertex="1" parent="1">
          <mxGeometry x="120" y="360" width="120" height="80" as="geometry" />
        </mxCell>
        <mxCell id="7PF5uapEtsxosT9Od1Yl-6" value="" style="ellipse;whiteSpace=wrap;html=1;" vertex="1" parent="1">
          <mxGeometry y="220" width="120" height="80" as="geometry" />
        </mxCell>
        <mxCell id="7PF5uapEtsxosT9Od1Yl-7" value="" style="ellipse;whiteSpace=wrap;html=1;" vertex="1" parent="1">
          <mxGeometry x="120" y="90" width="120" height="80" as="geometry" />
        </mxCell>
        <mxCell id="7PF5uapEtsxosT9Od1Yl-8" value="" style="ellipse;whiteSpace=wrap;html=1;" vertex="1" parent="1">
          <mxGeometry x="300" y="90" width="120" height="80" as="geometry" />
        </mxCell>
        <mxCell id="7PF5uapEtsxosT9Od1Yl-19" value="" style="ellipse;whiteSpace=wrap;html=1;" vertex="1" parent="1">
          <mxGeometry x="1050" y="230" width="120" height="80" as="geometry" />
        </mxCell>
        <mxCell id="7PF5uapEtsxosT9Od1Yl-20" value="" style="ellipse;whiteSpace=wrap;html=1;" vertex="1" parent="1">
          <mxGeometry x="730" y="90" width="120" height="80" as="geometry" />
        </mxCell>
        <mxCell id="7PF5uapEtsxosT9Od1Yl-21" value="" style="ellipse;whiteSpace=wrap;html=1;" vertex="1" parent="1">
          <mxGeometry x="750" y="370" width="120" height="80" as="geometry" />
        </mxCell>
        <mxCell id="7PF5uapEtsxosT9Od1Yl-22" value="" style="ellipse;whiteSpace=wrap;html=1;" vertex="1" parent="1">
          <mxGeometry x="950" y="90" width="120" height="80" as="geometry" />
        </mxCell>
        <mxCell id="7PF5uapEtsxosT9Od1Yl-23" value="" style="ellipse;whiteSpace=wrap;html=1;" vertex="1" parent="1">
          <mxGeometry x="940" y="360" width="120" height="80" as="geometry" />
        </mxCell>
        <mxCell id="7PF5uapEtsxosT9Od1Yl-24" value="글쓰기" style="text;strokeColor=none;align=center;fillColor=none;html=1;verticalAlign=middle;whiteSpace=wrap;rounded=0;" vertex="1" parent="1">
          <mxGeometry x="520" y="255" width="60" height="30" as="geometry" />
        </mxCell>
        <mxCell id="7PF5uapEtsxosT9Od1Yl-25" value="글쓴이" style="text;strokeColor=none;align=center;fillColor=none;html=1;verticalAlign=middle;whiteSpace=wrap;rounded=0;" vertex="1" parent="1">
          <mxGeometry x="240" y="255" width="60" height="30" as="geometry" />
        </mxCell>
        <mxCell id="7PF5uapEtsxosT9Od1Yl-26" value="글목록" style="text;strokeColor=none;align=center;fillColor=none;html=1;verticalAlign=middle;whiteSpace=wrap;rounded=0;" vertex="1" parent="1">
          <mxGeometry x="790" y="255" width="60" height="30" as="geometry" />
        </mxCell>
        <mxCell id="7PF5uapEtsxosT9Od1Yl-27" value="" style="endArrow=none;html=1;rounded=0;entryX=0.5;entryY=1;entryDx=0;entryDy=0;exitX=0.75;exitY=0;exitDx=0;exitDy=0;" edge="1" parent="1" source="7PF5uapEtsxosT9Od1Yl-1" target="7PF5uapEtsxosT9Od1Yl-8">
          <mxGeometry relative="1" as="geometry">
            <mxPoint x="270" y="218.57" as="sourcePoint" />
            <mxPoint x="450" y="218.57" as="targetPoint" />
          </mxGeometry>
        </mxCell>
        <mxCell id="7PF5uapEtsxosT9Od1Yl-28" value="" style="endArrow=none;html=1;rounded=0;entryX=0.5;entryY=1;entryDx=0;entryDy=0;exitX=0.25;exitY=0;exitDx=0;exitDy=0;" edge="1" parent="1" source="7PF5uapEtsxosT9Od1Yl-1" target="7PF5uapEtsxosT9Od1Yl-7">
          <mxGeometry relative="1" as="geometry">
            <mxPoint x="310" y="250" as="sourcePoint" />
            <mxPoint x="370" y="180" as="targetPoint" />
          </mxGeometry>
        </mxCell>
        <mxCell id="7PF5uapEtsxosT9Od1Yl-29" value="v" style="endArrow=none;html=1;rounded=0;entryX=1;entryY=0.5;entryDx=0;entryDy=0;exitX=0;exitY=0.5;exitDx=0;exitDy=0;" edge="1" parent="1" source="7PF5uapEtsxosT9Od1Yl-1" target="7PF5uapEtsxosT9Od1Yl-6">
          <mxGeometry relative="1" as="geometry">
            <mxPoint x="320" y="260" as="sourcePoint" />
            <mxPoint x="380" y="190" as="targetPoint" />
          </mxGeometry>
        </mxCell>
        <mxCell id="7PF5uapEtsxosT9Od1Yl-30" value="" style="endArrow=none;html=1;rounded=0;entryX=0.69;entryY=-0.025;entryDx=0;entryDy=0;exitX=0.25;exitY=1;exitDx=0;exitDy=0;entryPerimeter=0;" edge="1" parent="1" source="7PF5uapEtsxosT9Od1Yl-1" target="7PF5uapEtsxosT9Od1Yl-5">
          <mxGeometry relative="1" as="geometry">
            <mxPoint x="330" y="270" as="sourcePoint" />
            <mxPoint x="390" y="200" as="targetPoint" />
          </mxGeometry>
        </mxCell>
        <mxCell id="7PF5uapEtsxosT9Od1Yl-31" value="" style="endArrow=none;html=1;rounded=0;entryX=0.419;entryY=0.004;entryDx=0;entryDy=0;exitX=0.75;exitY=1;exitDx=0;exitDy=0;entryPerimeter=0;" edge="1" parent="1" source="7PF5uapEtsxosT9Od1Yl-1" target="7PF5uapEtsxosT9Od1Yl-4">
          <mxGeometry relative="1" as="geometry">
            <mxPoint x="340" y="280" as="sourcePoint" />
            <mxPoint x="400" y="210" as="targetPoint" />
          </mxGeometry>
        </mxCell>
        <mxCell id="7PF5uapEtsxosT9Od1Yl-32" value="" style="endArrow=none;html=1;rounded=0;entryX=0.5;entryY=1;entryDx=0;entryDy=0;exitX=0.25;exitY=0;exitDx=0;exitDy=0;" edge="1" parent="1" source="7PF5uapEtsxosT9Od1Yl-3" target="7PF5uapEtsxosT9Od1Yl-20">
          <mxGeometry relative="1" as="geometry">
            <mxPoint x="350" y="290" as="sourcePoint" />
            <mxPoint x="410" y="220" as="targetPoint" />
          </mxGeometry>
        </mxCell>
        <mxCell id="7PF5uapEtsxosT9Od1Yl-33" value="" style="endArrow=none;html=1;rounded=0;entryX=0.25;entryY=0.95;entryDx=0;entryDy=0;exitX=1;exitY=0;exitDx=0;exitDy=0;entryPerimeter=0;" edge="1" parent="1" source="7PF5uapEtsxosT9Od1Yl-3" target="7PF5uapEtsxosT9Od1Yl-22">
          <mxGeometry relative="1" as="geometry">
            <mxPoint x="360" y="300" as="sourcePoint" />
            <mxPoint x="420" y="230" as="targetPoint" />
          </mxGeometry>
        </mxCell>
        <mxCell id="7PF5uapEtsxosT9Od1Yl-34" value="" style="endArrow=none;html=1;rounded=0;entryX=0;entryY=0.5;entryDx=0;entryDy=0;exitX=1;exitY=0.5;exitDx=0;exitDy=0;" edge="1" parent="1" source="7PF5uapEtsxosT9Od1Yl-3" target="7PF5uapEtsxosT9Od1Yl-19">
          <mxGeometry relative="1" as="geometry">
            <mxPoint x="890" y="280" as="sourcePoint" />
            <mxPoint x="430" y="240" as="targetPoint" />
          </mxGeometry>
        </mxCell>
        <mxCell id="7PF5uapEtsxosT9Od1Yl-35" value="" style="endArrow=none;html=1;rounded=0;entryX=0.21;entryY=0.018;entryDx=0;entryDy=0;exitX=1;exitY=1;exitDx=0;exitDy=0;entryPerimeter=0;" edge="1" parent="1" source="7PF5uapEtsxosT9Od1Yl-3" target="7PF5uapEtsxosT9Od1Yl-23">
          <mxGeometry relative="1" as="geometry">
            <mxPoint x="380" y="320" as="sourcePoint" />
            <mxPoint x="440" y="250" as="targetPoint" />
          </mxGeometry>
        </mxCell>
        <mxCell id="7PF5uapEtsxosT9Od1Yl-36" value="" style="endArrow=none;html=1;rounded=0;entryX=0.5;entryY=0;entryDx=0;entryDy=0;exitX=0.5;exitY=1;exitDx=0;exitDy=0;" edge="1" parent="1" source="7PF5uapEtsxosT9Od1Yl-3" target="7PF5uapEtsxosT9Od1Yl-21">
          <mxGeometry relative="1" as="geometry">
            <mxPoint x="390" y="330" as="sourcePoint" />
            <mxPoint x="450" y="260" as="targetPoint" />
          </mxGeometry>
        </mxCell>
        <mxCell id="7PF5uapEtsxosT9Od1Yl-37" value="" style="edgeStyle=entityRelationEdgeStyle;fontSize=12;html=1;endArrow=ERzeroToMany;endFill=1;rounded=0;exitX=1;exitY=0.5;exitDx=0;exitDy=0;entryX=0;entryY=0.5;entryDx=0;entryDy=0;" edge="1" parent="1" source="7PF5uapEtsxosT9Od1Yl-2" target="7PF5uapEtsxosT9Od1Yl-3">
          <mxGeometry width="100" height="100" relative="1" as="geometry">
            <mxPoint x="640" y="300" as="sourcePoint" />
            <mxPoint x="740" y="200" as="targetPoint" />
          </mxGeometry>
        </mxCell>
        <mxCell id="7PF5uapEtsxosT9Od1Yl-38" value="" style="edgeStyle=entityRelationEdgeStyle;fontSize=12;html=1;endArrow=ERzeroToOne;endFill=1;rounded=0;exitX=0;exitY=0.5;exitDx=0;exitDy=0;entryX=1;entryY=0.5;entryDx=0;entryDy=0;" edge="1" parent="1" source="7PF5uapEtsxosT9Od1Yl-2" target="7PF5uapEtsxosT9Od1Yl-1">
          <mxGeometry width="100" height="100" relative="1" as="geometry">
            <mxPoint x="640" y="300" as="sourcePoint" />
            <mxPoint x="340" y="270" as="targetPoint" />
          </mxGeometry>
        </mxCell>
      </root>
    </mxGraphModel>
  </diagram>
</mxfile>
